<mxfile host="app.diagrams.net" modified="2023-06-08T01:32:36.712Z" agent="Mozilla/5.0 (Windows NT 10.0; Win64; x64) AppleWebKit/537.36 (KHTML, like Gecko) Chrome/114.0.0.0 Safari/537.36" etag="-gTAqyr_mMQlMlxPKXHr" version="21.3.7" type="device">
  <diagram name="페이지-1" id="4ybsohaJhQ7dMW6F-Fi_">
    <mxGraphModel dx="2607" dy="1271" grid="1" gridSize="10" guides="1" tooltips="1" connect="1" arrows="1" fold="1" page="1" pageScale="1" pageWidth="4681" pageHeight="3300" math="0" shadow="0">
      <root>
        <mxCell id="0" />
        <mxCell id="1" parent="0" />
        <mxCell id="aDRcTNhzuDtdoMTe6Rfn-13" style="edgeStyle=orthogonalEdgeStyle;rounded=0;orthogonalLoop=1;jettySize=auto;html=1;entryX=0;entryY=0.5;entryDx=0;entryDy=0;" edge="1" parent="1" source="aDRcTNhzuDtdoMTe6Rfn-1" target="aDRcTNhzuDtdoMTe6Rfn-3">
          <mxGeometry relative="1" as="geometry" />
        </mxCell>
        <mxCell id="aDRcTNhzuDtdoMTe6Rfn-1" value="Actor" style="shape=umlActor;verticalLabelPosition=bottom;verticalAlign=top;html=1;outlineConnect=0;fillColor=#dae8fc;strokeColor=#6c8ebf;" vertex="1" parent="1">
          <mxGeometry x="60" y="200" width="380" height="370" as="geometry" />
        </mxCell>
        <mxCell id="aDRcTNhzuDtdoMTe6Rfn-21" style="edgeStyle=orthogonalEdgeStyle;rounded=0;orthogonalLoop=1;jettySize=auto;html=1;" edge="1" parent="1" source="aDRcTNhzuDtdoMTe6Rfn-3" target="aDRcTNhzuDtdoMTe6Rfn-14">
          <mxGeometry relative="1" as="geometry" />
        </mxCell>
        <mxCell id="aDRcTNhzuDtdoMTe6Rfn-3" value="&lt;font style=&quot;font-size: 50px;&quot;&gt;시작화면&lt;/font&gt;" style="ellipse;whiteSpace=wrap;html=1;" vertex="1" parent="1">
          <mxGeometry x="630" y="160" width="470" height="250" as="geometry" />
        </mxCell>
        <mxCell id="aDRcTNhzuDtdoMTe6Rfn-5" value="최신영화" style="swimlane;fontStyle=0;childLayout=stackLayout;horizontal=1;startSize=30;horizontalStack=0;resizeParent=1;resizeParentMax=0;resizeLast=0;collapsible=1;marginBottom=0;whiteSpace=wrap;html=1;fontSize=27;" vertex="1" parent="1">
          <mxGeometry x="690" y="420" width="350" height="180" as="geometry" />
        </mxCell>
        <mxCell id="aDRcTNhzuDtdoMTe6Rfn-6" value="영화명&lt;span style=&quot;white-space: pre; font-size: 27px;&quot;&gt;&#x9;&lt;/span&gt;&lt;br style=&quot;font-size: 27px;&quot;&gt;" style="text;strokeColor=none;fillColor=none;align=left;verticalAlign=middle;spacingLeft=4;spacingRight=4;overflow=hidden;points=[[0,0.5],[1,0.5]];portConstraint=eastwest;rotatable=0;whiteSpace=wrap;html=1;fontSize=27;" vertex="1" parent="aDRcTNhzuDtdoMTe6Rfn-5">
          <mxGeometry y="30" width="350" height="30" as="geometry" />
        </mxCell>
        <mxCell id="aDRcTNhzuDtdoMTe6Rfn-7" value="감독" style="text;strokeColor=none;fillColor=none;align=left;verticalAlign=middle;spacingLeft=4;spacingRight=4;overflow=hidden;points=[[0,0.5],[1,0.5]];portConstraint=eastwest;rotatable=0;whiteSpace=wrap;html=1;fontSize=27;" vertex="1" parent="aDRcTNhzuDtdoMTe6Rfn-5">
          <mxGeometry y="60" width="350" height="30" as="geometry" />
        </mxCell>
        <mxCell id="aDRcTNhzuDtdoMTe6Rfn-8" value="출현진" style="text;strokeColor=none;fillColor=none;align=left;verticalAlign=middle;spacingLeft=4;spacingRight=4;overflow=hidden;points=[[0,0.5],[1,0.5]];portConstraint=eastwest;rotatable=0;whiteSpace=wrap;html=1;fontSize=27;" vertex="1" parent="aDRcTNhzuDtdoMTe6Rfn-5">
          <mxGeometry y="90" width="350" height="30" as="geometry" />
        </mxCell>
        <mxCell id="aDRcTNhzuDtdoMTe6Rfn-12" value="개봉일자" style="text;strokeColor=none;fillColor=none;align=left;verticalAlign=middle;spacingLeft=4;spacingRight=4;overflow=hidden;points=[[0,0.5],[1,0.5]];portConstraint=eastwest;rotatable=0;whiteSpace=wrap;html=1;fontSize=27;" vertex="1" parent="aDRcTNhzuDtdoMTe6Rfn-5">
          <mxGeometry y="120" width="350" height="30" as="geometry" />
        </mxCell>
        <mxCell id="aDRcTNhzuDtdoMTe6Rfn-11" value="영화설명" style="text;strokeColor=none;fillColor=none;align=left;verticalAlign=middle;spacingLeft=4;spacingRight=4;overflow=hidden;points=[[0,0.5],[1,0.5]];portConstraint=eastwest;rotatable=0;whiteSpace=wrap;html=1;fontSize=27;" vertex="1" parent="aDRcTNhzuDtdoMTe6Rfn-5">
          <mxGeometry y="150" width="350" height="30" as="geometry" />
        </mxCell>
        <mxCell id="aDRcTNhzuDtdoMTe6Rfn-24" style="edgeStyle=orthogonalEdgeStyle;rounded=0;orthogonalLoop=1;jettySize=auto;html=1;entryX=0;entryY=0.5;entryDx=0;entryDy=0;" edge="1" parent="1" source="aDRcTNhzuDtdoMTe6Rfn-14" target="aDRcTNhzuDtdoMTe6Rfn-22">
          <mxGeometry relative="1" as="geometry" />
        </mxCell>
        <mxCell id="aDRcTNhzuDtdoMTe6Rfn-14" value="&lt;font style=&quot;font-size: 50px;&quot;&gt;영화검색&lt;/font&gt;" style="ellipse;whiteSpace=wrap;html=1;" vertex="1" parent="1">
          <mxGeometry x="1240" y="185" width="260" height="200" as="geometry" />
        </mxCell>
        <mxCell id="aDRcTNhzuDtdoMTe6Rfn-15" value="영화검색" style="swimlane;fontStyle=0;childLayout=stackLayout;horizontal=1;startSize=30;horizontalStack=0;resizeParent=1;resizeParentMax=0;resizeLast=0;collapsible=1;marginBottom=0;whiteSpace=wrap;html=1;fontSize=27;" vertex="1" parent="1">
          <mxGeometry x="1210" y="420" width="350" height="180" as="geometry" />
        </mxCell>
        <mxCell id="aDRcTNhzuDtdoMTe6Rfn-16" value="제목으로 검색하기" style="text;strokeColor=none;fillColor=none;align=left;verticalAlign=middle;spacingLeft=4;spacingRight=4;overflow=hidden;points=[[0,0.5],[1,0.5]];portConstraint=eastwest;rotatable=0;whiteSpace=wrap;html=1;fontSize=27;" vertex="1" parent="aDRcTNhzuDtdoMTe6Rfn-15">
          <mxGeometry y="30" width="350" height="30" as="geometry" />
        </mxCell>
        <mxCell id="aDRcTNhzuDtdoMTe6Rfn-17" value="장르로 검색하기" style="text;strokeColor=none;fillColor=none;align=left;verticalAlign=middle;spacingLeft=4;spacingRight=4;overflow=hidden;points=[[0,0.5],[1,0.5]];portConstraint=eastwest;rotatable=0;whiteSpace=wrap;html=1;fontSize=27;" vertex="1" parent="aDRcTNhzuDtdoMTe6Rfn-15">
          <mxGeometry y="60" width="350" height="30" as="geometry" />
        </mxCell>
        <mxCell id="aDRcTNhzuDtdoMTe6Rfn-18" value="감독으로 검색하기" style="text;strokeColor=none;fillColor=none;align=left;verticalAlign=middle;spacingLeft=4;spacingRight=4;overflow=hidden;points=[[0,0.5],[1,0.5]];portConstraint=eastwest;rotatable=0;whiteSpace=wrap;html=1;fontSize=27;" vertex="1" parent="aDRcTNhzuDtdoMTe6Rfn-15">
          <mxGeometry y="90" width="350" height="30" as="geometry" />
        </mxCell>
        <mxCell id="aDRcTNhzuDtdoMTe6Rfn-19" value="주연으로 검색하기" style="text;strokeColor=none;fillColor=none;align=left;verticalAlign=middle;spacingLeft=4;spacingRight=4;overflow=hidden;points=[[0,0.5],[1,0.5]];portConstraint=eastwest;rotatable=0;whiteSpace=wrap;html=1;fontSize=27;" vertex="1" parent="aDRcTNhzuDtdoMTe6Rfn-15">
          <mxGeometry y="120" width="350" height="30" as="geometry" />
        </mxCell>
        <mxCell id="aDRcTNhzuDtdoMTe6Rfn-20" value="내용(키워드)로 검색하기" style="text;strokeColor=none;fillColor=none;align=left;verticalAlign=middle;spacingLeft=4;spacingRight=4;overflow=hidden;points=[[0,0.5],[1,0.5]];portConstraint=eastwest;rotatable=0;whiteSpace=wrap;html=1;fontSize=27;" vertex="1" parent="aDRcTNhzuDtdoMTe6Rfn-15">
          <mxGeometry y="150" width="350" height="30" as="geometry" />
        </mxCell>
        <mxCell id="aDRcTNhzuDtdoMTe6Rfn-41" style="rounded=0;orthogonalLoop=1;jettySize=auto;html=1;" edge="1" parent="1" source="aDRcTNhzuDtdoMTe6Rfn-22" target="aDRcTNhzuDtdoMTe6Rfn-25">
          <mxGeometry relative="1" as="geometry" />
        </mxCell>
        <mxCell id="aDRcTNhzuDtdoMTe6Rfn-42" style="edgeStyle=none;shape=connector;rounded=0;orthogonalLoop=1;jettySize=auto;html=1;labelBackgroundColor=default;strokeColor=default;fontFamily=Helvetica;fontSize=11;fontColor=default;endArrow=classic;" edge="1" parent="1" source="aDRcTNhzuDtdoMTe6Rfn-22" target="aDRcTNhzuDtdoMTe6Rfn-26">
          <mxGeometry relative="1" as="geometry" />
        </mxCell>
        <mxCell id="aDRcTNhzuDtdoMTe6Rfn-43" style="edgeStyle=none;shape=connector;rounded=0;orthogonalLoop=1;jettySize=auto;html=1;labelBackgroundColor=default;strokeColor=default;fontFamily=Helvetica;fontSize=11;fontColor=default;endArrow=classic;" edge="1" parent="1" source="aDRcTNhzuDtdoMTe6Rfn-22" target="aDRcTNhzuDtdoMTe6Rfn-27">
          <mxGeometry relative="1" as="geometry" />
        </mxCell>
        <mxCell id="aDRcTNhzuDtdoMTe6Rfn-44" style="edgeStyle=none;shape=connector;rounded=0;orthogonalLoop=1;jettySize=auto;html=1;labelBackgroundColor=default;strokeColor=default;fontFamily=Helvetica;fontSize=11;fontColor=default;endArrow=classic;" edge="1" parent="1" source="aDRcTNhzuDtdoMTe6Rfn-22" target="aDRcTNhzuDtdoMTe6Rfn-28">
          <mxGeometry relative="1" as="geometry" />
        </mxCell>
        <mxCell id="aDRcTNhzuDtdoMTe6Rfn-22" value="&lt;span style=&quot;font-size: 50px;&quot;&gt;자세히보기&lt;/span&gt;" style="ellipse;whiteSpace=wrap;html=1;" vertex="1" parent="1">
          <mxGeometry x="1640" y="185" width="260" height="200" as="geometry" />
        </mxCell>
        <mxCell id="aDRcTNhzuDtdoMTe6Rfn-48" style="edgeStyle=none;shape=connector;rounded=0;orthogonalLoop=1;jettySize=auto;html=1;labelBackgroundColor=default;strokeColor=default;fontFamily=Helvetica;fontSize=11;fontColor=default;endArrow=classic;" edge="1" parent="1" source="aDRcTNhzuDtdoMTe6Rfn-25" target="aDRcTNhzuDtdoMTe6Rfn-47">
          <mxGeometry relative="1" as="geometry" />
        </mxCell>
        <mxCell id="aDRcTNhzuDtdoMTe6Rfn-25" value="&lt;span style=&quot;font-size: 50px;&quot;&gt;영화평&lt;br&gt;남기기&lt;/span&gt;" style="ellipse;whiteSpace=wrap;html=1;" vertex="1" parent="1">
          <mxGeometry x="2070" y="90" width="260" height="200" as="geometry" />
        </mxCell>
        <mxCell id="aDRcTNhzuDtdoMTe6Rfn-45" style="edgeStyle=none;shape=connector;rounded=0;orthogonalLoop=1;jettySize=auto;html=1;labelBackgroundColor=default;strokeColor=default;fontFamily=Helvetica;fontSize=11;fontColor=default;endArrow=classic;" edge="1" parent="1" source="aDRcTNhzuDtdoMTe6Rfn-26" target="aDRcTNhzuDtdoMTe6Rfn-33">
          <mxGeometry relative="1" as="geometry" />
        </mxCell>
        <mxCell id="aDRcTNhzuDtdoMTe6Rfn-26" value="&lt;span style=&quot;font-size: 50px;&quot;&gt;영화&lt;br&gt;예매하기&lt;/span&gt;" style="ellipse;whiteSpace=wrap;html=1;" vertex="1" parent="1">
          <mxGeometry x="2081" y="330" width="260" height="200" as="geometry" />
        </mxCell>
        <mxCell id="aDRcTNhzuDtdoMTe6Rfn-46" style="edgeStyle=none;shape=connector;rounded=0;orthogonalLoop=1;jettySize=auto;html=1;labelBackgroundColor=default;strokeColor=default;fontFamily=Helvetica;fontSize=11;fontColor=default;endArrow=classic;" edge="1" parent="1" source="aDRcTNhzuDtdoMTe6Rfn-27" target="aDRcTNhzuDtdoMTe6Rfn-34">
          <mxGeometry relative="1" as="geometry" />
        </mxCell>
        <mxCell id="aDRcTNhzuDtdoMTe6Rfn-27" value="&lt;span style=&quot;font-size: 50px;&quot;&gt;OTT링크 바로가기&lt;/span&gt;" style="ellipse;whiteSpace=wrap;html=1;" vertex="1" parent="1">
          <mxGeometry x="2081" y="590" width="260" height="200" as="geometry" />
        </mxCell>
        <mxCell id="aDRcTNhzuDtdoMTe6Rfn-28" value="&lt;span style=&quot;font-size: 50px;&quot;&gt;공유하기&lt;/span&gt;" style="ellipse;whiteSpace=wrap;html=1;" vertex="1" parent="1">
          <mxGeometry x="2081" y="860" width="260" height="200" as="geometry" />
        </mxCell>
        <mxCell id="aDRcTNhzuDtdoMTe6Rfn-33" value="&lt;span style=&quot;font-size: 50px;&quot;&gt;제휴영화관링크&lt;/span&gt;" style="ellipse;whiteSpace=wrap;html=1;" vertex="1" parent="1">
          <mxGeometry x="2440" y="330" width="260" height="200" as="geometry" />
        </mxCell>
        <mxCell id="aDRcTNhzuDtdoMTe6Rfn-34" value="&lt;span style=&quot;font-size: 50px;&quot;&gt;OTT연결&lt;/span&gt;" style="ellipse;whiteSpace=wrap;html=1;" vertex="1" parent="1">
          <mxGeometry x="2460" y="590" width="260" height="200" as="geometry" />
        </mxCell>
        <mxCell id="aDRcTNhzuDtdoMTe6Rfn-35" value="공유하기" style="swimlane;fontStyle=0;childLayout=stackLayout;horizontal=1;startSize=30;horizontalStack=0;resizeParent=1;resizeParentMax=0;resizeLast=0;collapsible=1;marginBottom=0;whiteSpace=wrap;html=1;fontSize=27;" vertex="1" parent="1">
          <mxGeometry x="2060" y="1080" width="350" height="120" as="geometry" />
        </mxCell>
        <mxCell id="aDRcTNhzuDtdoMTe6Rfn-36" value="SNS 링크보내기" style="text;strokeColor=none;fillColor=none;align=left;verticalAlign=middle;spacingLeft=4;spacingRight=4;overflow=hidden;points=[[0,0.5],[1,0.5]];portConstraint=eastwest;rotatable=0;whiteSpace=wrap;html=1;fontSize=27;" vertex="1" parent="aDRcTNhzuDtdoMTe6Rfn-35">
          <mxGeometry y="30" width="350" height="30" as="geometry" />
        </mxCell>
        <mxCell id="aDRcTNhzuDtdoMTe6Rfn-37" value="페이스북 링크 보내기" style="text;strokeColor=none;fillColor=none;align=left;verticalAlign=middle;spacingLeft=4;spacingRight=4;overflow=hidden;points=[[0,0.5],[1,0.5]];portConstraint=eastwest;rotatable=0;whiteSpace=wrap;html=1;fontSize=27;" vertex="1" parent="aDRcTNhzuDtdoMTe6Rfn-35">
          <mxGeometry y="60" width="350" height="30" as="geometry" />
        </mxCell>
        <mxCell id="aDRcTNhzuDtdoMTe6Rfn-38" value="카카오 링크 보내기" style="text;strokeColor=none;fillColor=none;align=left;verticalAlign=middle;spacingLeft=4;spacingRight=4;overflow=hidden;points=[[0,0.5],[1,0.5]];portConstraint=eastwest;rotatable=0;whiteSpace=wrap;html=1;fontSize=27;" vertex="1" parent="aDRcTNhzuDtdoMTe6Rfn-35">
          <mxGeometry y="90" width="350" height="30" as="geometry" />
        </mxCell>
        <mxCell id="aDRcTNhzuDtdoMTe6Rfn-47" value="" style="shape=cylinder3;whiteSpace=wrap;html=1;boundedLbl=1;backgroundOutline=1;size=15;fontFamily=Helvetica;fontSize=11;fontColor=default;" vertex="1" parent="1">
          <mxGeometry x="2470" y="70" width="260" height="230" as="geometry" />
        </mxCell>
      </root>
    </mxGraphModel>
  </diagram>
</mxfile>
